<svg xmlns="http://www.w3.org/2000/svg" xmlns:xlink="http://www.w3.org/1999/xlink" width="30" height="30" viewBox="0 0 30 30">
  <defs>
    <circle id="button_voice_active-b" cx="11" cy="10" r="11"/>
    <filter id="button_voice_active-a" width="200%" height="200%" x="-50%" y="-31.8%" filterUnits="objectBoundingBox">
      <feOffset dy="4" in="SourceAlpha" result="shadowOffsetOuter1"/>
      <feGaussianBlur in="shadowOffsetOuter1" result="shadowBlurOuter1" stdDeviation="3"/>
      <feColorMatrix in="shadowBlurOuter1" values="0 0 0 0 0.854901961   0 0 0 0 0.00784313725   0 0 0 0 0.00784313725  0 0 0 0.2 0"/>
    </filter>
  </defs>
  <g fill="none" fill-rule="evenodd" transform="translate(4 5)">
    <use fill="#000" filter="url(#button_voice_active-a)" xlink:href="#button_voice_active-b"/>
    <use fill="#F74444" xlink:href="#button_voice_active-b"/>
    <path fill="#FFF" d="M11.5,5 C11.7761424,5 12,5.22385763 12,5.5 L12,14.5 C12,14.7761424 11.7761424,15 11.5,15 C11.2238576,15 11,14.7761424 11,14.5 L11,5.5 C11,5.22385763 11.2238576,5 11.5,5 Z M7.5,7 C7.77614237,7 8,7.22385763 8,7.5 L8,13.5 C8,13.7761424 7.77614237,14 7.5,14 C7.22385763,14 7,13.7761424 7,13.5 L7,7.5 C7,7.22385763 7.22385763,7 7.5,7 Z M9.5,8 C9.77614237,8 10,8.22385763 10,8.5 L10,12.5 C10,12.7761424 9.77614237,13 9.5,13 C9.22385763,13 9,12.7761424 9,12.5 L9,8.5 C9,8.22385763 9.22385763,8 9.5,8 Z M13.5,7 C13.7761424,7 14,7.22385763 14,7.5 L14,12.5 C14,12.7761424 13.7761424,13 13.5,13 C13.2238576,13 13,12.7761424 13,12.5 L13,7.5 C13,7.22385763 13.2238576,7 13.5,7 Z M15.5,8 C15.7761424,8 16,8.22385763 16,8.5 L16,11.5 C16,11.7761424 15.7761424,12 15.5,12 C15.2238576,12 15,11.7761424 15,11.5 L15,8.5 C15,8.22385763 15.2238576,8 15.5,8 Z"/>
  </g>
</svg>
