<svg xmlns="http://www.w3.org/2000/svg" xmlns:xlink="http://www.w3.org/1999/xlink" width="128" height="128" viewBox="0 0 128 128">
  <defs>
    <linearGradient id="icon_success-c" x1="50%" x2="50%" y1="0%" y2="100%">
      <stop offset="0%" stop-color="#55C600"/>
      <stop offset="100%" stop-color="#00C3B6"/>
    </linearGradient>
    <path id="icon_success-b" d="M64,113 C91.0619527,113 113,91.0619527 113,64 C113,36.9380473 91.0619527,15 64,15 C36.9380473,15 15,36.9380473 15,64 C15,91.0619527 36.9380473,113 64,113 Z"/>
    <filter id="icon_success-a" width="124.5%" height="124.5%" x="-12.2%" y="-6.1%" filterUnits="objectBoundingBox">
      <feOffset dy="6" in="SourceAlpha" result="shadowOffsetOuter1"/>
      <feGaussianBlur in="shadowOffsetOuter1" result="shadowBlurOuter1" stdDeviation="3"/>
      <feColorMatrix in="shadowBlurOuter1" values="0 0 0 0 0   0 0 0 0 0.835294118   0 0 0 0 0.270588235  0 0 0 0.3 0"/>
    </filter>
  </defs>
  <g fill="none" fill-rule="evenodd">
    <use fill="#000" filter="url(#icon_success-a)" xlink:href="#icon_success-b"/>
    <use fill="url(#icon_success-c)" xlink:href="#icon_success-b"/>
    <path fill="#FFF" fill-rule="nonzero" d="M53.4382219,78.9845183 C56.4382919,82.229833 61.2950661,82.2138646 64.2746411,78.9613939 L90.7817734,50.0265056 C91.9009716,48.8048014 91.8178741,46.9071249 90.5961698,45.7879267 C89.3744656,44.6687284 87.4767891,44.751826 86.3575909,45.9735302 L60.2285673,74.5671381 C59.4864832,75.3792183 58.2797624,75.3829284 57.5206665,74.5617792 L43.2029373,59.0736281 C42.0782368,57.8569873 40.1802046,57.7824551 38.9635639,58.9071557 C37.7469232,60.0318563 37.672391,61.9298884 38.7970915,63.1465291 L53.4382219,78.9845183 Z"/>
  </g>
</svg>
