<svg xmlns="http://www.w3.org/2000/svg" xmlns:xlink="http://www.w3.org/1999/xlink" width="128" height="128" viewBox="0 0 128 128">
  <defs>
    <linearGradient id="icon_fail-c" x1="50%" x2="50%" y1="0%" y2="100%">
      <stop offset="0%" stop-color="#FF674A"/>
      <stop offset="100%" stop-color="#EC5783"/>
    </linearGradient>
    <circle id="icon_fail-b" cx="64" cy="64" r="49"/>
    <filter id="icon_fail-a" width="124.5%" height="124.5%" x="-12.2%" y="-6.1%" filterUnits="objectBoundingBox">
      <feOffset dy="6" in="SourceAlpha" result="shadowOffsetOuter1"/>
      <feGaussianBlur in="shadowOffsetOuter1" result="shadowBlurOuter1" stdDeviation="3"/>
      <feColorMatrix in="shadowBlurOuter1" values="0 0 0 0 1   0 0 0 0 0.443137255   0 0 0 0 0.443137255  0 0 0 0.3 0"/>
    </filter>
  </defs>
  <g fill="none" fill-rule="evenodd">
    <use fill="#000" filter="url(#icon_fail-a)" xlink:href="#icon_fail-b"/>
    <use fill="url(#icon_fail-c)" xlink:href="#icon_fail-b"/>
    <path fill="#FFF" fill-rule="nonzero" d="M48.4142136,45.7304474 L64.677,61.9936609 L80.9411255,45.7304474 C81.6810663,44.9905066 82.8565504,44.9515624 83.6423379,45.6136146 L83.7695526,45.7304474 C84.5506012,46.511496 84.5506012,47.7778259 83.7695526,48.5588745 L83.7695526,48.5588745 L67.506,64.8216609 L83.7695526,81.0857864 C84.5506012,81.866835 84.5506012,83.133165 83.7695526,83.9142136 C82.988504,84.6952621 81.7221741,84.6952621 80.9411255,83.9142136 L64.677,67.6506609 L48.4142136,83.9142136 C47.6742728,84.6541543 46.4987886,84.6930986 45.7130012,84.0310463 L45.5857864,83.9142136 C44.8047379,83.133165 44.8047379,81.866835 45.5857864,81.0857864 L45.5857864,81.0857864 L61.849,64.8216609 L45.5857864,48.5588745 C44.8047379,47.7778259 44.8047379,46.511496 45.5857864,45.7304474 C46.366835,44.9493988 47.633165,44.9493988 48.4142136,45.7304474 Z"/>
  </g>
</svg>
