<svg xmlns="http://www.w3.org/2000/svg" width="16" height="16" viewBox="0 0 16 16">
  <path d="M14.5,4.5 C14.7454599,4.5 14.9496084,4.67687516 14.9919443,4.91012437 L15,5 L15,11.5 C15,13.3685634 13.5357224,14.8951264 11.6920352,14.9948211 L11.5,15 L4,15 C3.72385763,15 3.5,14.7761424 3.5,14.5 C3.5,14.2545401 3.67687516,14.0503916 3.91012437,14.0080557 L4,14 L11.5,14 C12.8254834,14 13.9100387,12.9684641 13.9946823,11.6643757 L14,11.5 L14,5 C14,4.72385763 14.2238576,4.5 14.5,4.5 Z M11,2 C12.1045695,2 13,2.8954305 13,4 L13,11 C13,12.1045695 12.1045695,13 11,13 L4,13 C2.8954305,13 2,12.1045695 2,11 L2,4 C2,2.8954305 2.8954305,2 4,2 L11,2 Z M11,3 L4,3 C3.48716416,3 3.06449284,3.38604019 3.00672773,3.88337887 L3,4 L3,11 C3,11.5128358 3.38604019,11.9355072 3.88337887,11.9932723 L4,12 L11,12 C11.5128358,12 11.9355072,11.6139598 11.9932723,11.1166211 L12,11 L12,4 C12,3.48716416 11.6139598,3.06449284 11.1166211,3.00672773 L11,3 Z M11.070601,5.56056774 L11.1449718,5.62383267 C11.3558549,5.83471579 11.3769431,6.16352236 11.2082366,6.39799015 L11.1449718,6.47236081 L7.24558441,10.3717482 C7.03470129,10.5826313 6.7058948,10.6037196 6.47142701,10.4350131 L6.39705627,10.3717482 L4.27573593,8.25042783 C4.04142136,8.01611325 4.04142136,7.63621426 4.27573593,7.40189969 C4.48661905,7.19101657 4.81542554,7.16992826 5.04989333,7.33863475 L5.12426407,7.40189969 L6.82106352,9.09811437 L10.2964436,5.62383267 C10.5073268,5.41294955 10.8361332,5.39186125 11.070601,5.56056774 Z"/>
</svg>
