<svg xmlns="http://www.w3.org/2000/svg" width="24" height="24" viewBox="0 0 24 24">
  <path fill="#536076" fill-rule="evenodd" d="M15.9966488,5 C17.6553538,5 19,6.34237885 19,8.00335124 L19,15.9966488 C19,17.6553538 17.6576211,19 15.9966488,19 L8.00335124,19 C6.34464615,19 5,17.6576211 5,15.9966488 L5,8.00335124 C5,6.34464615 6.34237885,5 8.00335124,5 L15.9966488,5 Z M10.5230613,8 L10.4991062,8 C10.2234575,8 10,8.23290253 10,8.50342274 L10,14.4965773 C10,14.77461 10.2148438,15 10.4976988,15 L14.5023012,15 C14.7466314,15 14.9498403,14.8167438 14.9919814,14.5877486 L15,14.5 C15,14.2238576 14.7861344,14 14.4962048,14 L11.2140266,14 C11.1080657,14 11.0221675,13.9151821 11.0221675,13.8003693 L11.0221675,8.49100518 C11.0221675,8.21983051 10.8053921,8 10.5230613,8 Z"/>
</svg>
