<svg xmlns="http://www.w3.org/2000/svg" xmlns:xlink="http://www.w3.org/1999/xlink" width="20" height="20" viewBox="0 0 20 20">
  <defs>
    <path id="normal-b" d="M15.746928,0.610409 C16.1830072,0.075220925 16.9703749,-0.00512317226 17.505563,0.430956 C18.0407511,0.867035172 18.1210952,1.65440292 17.685016,2.189591 L17.685016,2.189591 L15.7447698,4.58776314 C15.9097468,5.02579899 16,5.50045902 16,5.99620271 L16,5.99620271 L16,14.0037973 C16,16.2111696 14.2108391,18 12.0037973,18 L12.0037973,18 L3.99620271,18 C1.78883037,18 0,16.2108391 0,14.0037973 L0,14.0037973 L0,5.99620271 C0,3.78883037 1.78916089,2 3.99620271,2 L3.99620271,2 L12.0037973,2 C12.7850228,2 13.5138231,2.22410476 14.1294526,2.61152476 L6.0718486,12.5752796 L3.93184247,10.1818276 C3.47169625,9.66718525 2.68147396,9.62300737 2.16683158,10.0831536 C1.6521892,10.5432998 1.60801132,11.3335221 2.06815753,11.8481645 L5.18412975,15.3331684 C5.69641143,15.9061208 6.59952816,15.8854171 7.08501595,15.2895912 L15.7447698,4.58776314 C15.4352149,3.76585378 14.8625799,3.07288706 14.1294526,2.61152476 Z"/>
    <filter id="normal-a" width="139%" height="139.2%" x="-19.5%" y="-14%" filterUnits="objectBoundingBox">
      <feOffset dy="1" in="SourceAlpha" result="shadowOffsetOuter1"/>
      <feGaussianBlur in="shadowOffsetOuter1" result="shadowBlurOuter1" stdDeviation="1"/>
      <feColorMatrix in="shadowBlurOuter1" values="0 0 0 0 0   0 0 0 0 0.505681818   0 0 0 0 1  0 0 0 0.3 0"/>
    </filter>
  </defs>
  <g fill="none" fill-rule="evenodd" transform="translate(2)">
    <use fill="#000" filter="url(#normal-a)" xlink:href="#normal-b"/>
    <use fill="#0081FF" xlink:href="#normal-b"/>
  </g>
</svg>
