<svg xmlns="http://www.w3.org/2000/svg" width="24" height="24" viewBox="0 0 24 24">
  <path fill="#FFF" d="M9.1,4.17443857e-14 C12.4293598,4.17443857e-14 15,2.66271567 15,6.50598913 L15.0008,8.12497355 C16.7253563,8.56707837 18,10.1309828 18,11.9931023 L18,18.0068977 C18,20.2122272 16.2082844,22 14.0052166,22 L3.9947834,22 C1.78852545,22 5.32907052e-15,20.2126701 5.32907052e-15,18.0068977 L5.32907052e-15,11.9931023 C5.32907052e-15,10.1313567 1.27691726,8.56719488 3.00026262,8.12500077 L3,6.50598913 C3,2.66271567 5.57064025,4.17443857e-14 8.9,4.17443857e-14 L9.1,4.17443857e-14 Z M14.0052166,10 L3.9947834,10 C2.89474821,10 2,10.8938786 2,11.9931023 L2,18.0068977 C2,19.1077248 2.89271921,20 3.9947834,20 L14.0052166,20 C15.1052518,20 16,19.1061214 16,18.0068977 L16,11.9931023 C16,10.8922752 15.1072808,10 14.0052166,10 Z M9.1,2 L8.9,2 C6.69126507,2 5,3.75184296 5,6.50598913 L5,7.999 L13,7.999 L13,6.50598913 C13,3.75184296 11.3087349,2 9.1,2 Z" transform="translate(3 1)"/>
</svg>
