<svg xmlns="http://www.w3.org/2000/svg" width="24" height="24" viewBox="0 0 24 24">
  <path d="M8,6.89152842 L8,17.8915284 L7,17.8915284 L7,6.89152842 L8,6.89152842 Z M15.4414239,7.56354375 C16.8607584,6.69617266 17.99995,7.34182897 17.99995,8.99705889 L17.99995,8.99705889 L17.99995,15.785998 C17.99995,17.4392064 16.8544588,18.0830345 15.4414239,17.2195131 L15.4414239,17.2195131 L10.0996114,13.9550722 C8.68027694,13.0877011 8.68657648,11.691506 10.0996114,10.8279847 L10.0996114,10.8279847 Z M16.9966826,8.79118638 C16.9953281,8.2314135 16.6136905,8.01910433 16.1442446,8.30598792 L16.1442446,8.30598792 L10.306654,11.8734044 C9.84080066,12.1580925 9.83833497,12.6259731 10.3091709,12.9135412 L10.3091709,12.9135412 L16.1640473,16.4894693 C16.63128,16.7748367 17.0154828,16.5603616 17.0141401,16.0055103 L17.0141401,16.0055103 Z" transform="matrix(-1 0 0 1 25 0)"/>
</svg>
