<svg xmlns="http://www.w3.org/2000/svg" width="24" height="24" viewBox="0 0 24 24">
  <path fill="#FFF" d="M18.7794372,6.04350623 L19.4564938,6.77943724 L6.22056276,18.9564938 L5.54350623,18.2205628 L18.7794372,6.04350623 Z M15.7235897,11.5739276 L18.3832444,9.12651741 C20.0946222,10.3628804 21,11.6792857 21,11.6792857 C21,11.6792857 17.811,17 12.01125,17 C11.3367466,17 10.6898363,16.916523 10.0741891,16.770481 L11.4238473,15.5295364 C11.6116666,15.5571189 11.804081,15.5714286 12,15.5714286 C14.0715,15.5714286 15.75,13.9728571 15.75,12 C15.75,11.8558234 15.7410291,11.7136395 15.7235897,11.5739276 L18.3832444,9.12651741 Z M12.01125,7 C13.3385543,7 14.5308264,7.24756752 15.5799614,7.62881384 L14.0679836,9.02020403 C13.4752196,8.64632072 12.7643641,8.42857143 12,8.42857143 C9.92925,8.42857143 8.25,10.0278571 8.25,12 C8.25,12.683408 8.45150426,13.3219031 8.80098431,13.8645946 L7.04690093,15.4782819 C4.51748174,13.9058522 3,11.6792857 3,11.6792857 C3,11.6792857 6.3345,7 12.01125,7 Z M12,9.85714286 C12.3368164,9.85714286 12.6563343,9.92765926 12.9431895,10.054017 L9.92537349,12.8309191 C9.81242708,12.5754073 9.75,12.294654 9.75,12 C9.75,11.8578571 9.765,11.7192857 9.79275,11.585 C10.89825,11.9714286 11.988,10.955 11.5965,9.89142857 C11.727,9.87 11.862,9.85714286 12,9.85714286 Z"/>
</svg>
