<svg xmlns="http://www.w3.org/2000/svg" width="24" height="24" viewBox="0 0 24 24">
  <path fill="#FFF" d="M14.25,12 C14.25,13.1835714 13.24275,14.1428571 12,14.1428571 C10.75725,14.1428571 9.75,13.1835714 9.75,12 C9.75,11.8578571 9.765,11.7192857 9.79275,11.585 C10.89825,11.9714286 11.988,10.955 11.5965,9.89142857 C11.727,9.87 11.862,9.85714286 12,9.85714286 C13.24275,9.85714286 14.25,10.8171429 14.25,12 Z M12.01125,7 C6.3345,7 3,11.6792857 3,11.6792857 C3,11.6792857 6.62625,17 12.01125,17 C17.811,17 21,11.6792857 21,11.6792857 C21,11.6792857 17.78175,7 12.01125,7 Z M12,15.5714286 C9.92925,15.5714286 8.25,13.9728571 8.25,12 C8.25,10.0278571 9.92925,8.42857143 12,8.42857143 C14.0715,8.42857143 15.75,10.0278571 15.75,12 C15.75,13.9728571 14.0715,15.5714286 12,15.5714286 Z"/>
</svg>
