<svg xmlns="http://www.w3.org/2000/svg" width="20" height="20" viewBox="0 0 20 20">
  <path fill="#414D68" d="M13.0068977,2 L6.99310226,2 C4.2353522,2 2,4.23518094 2,6.99310226 L2,13.0068977 C2,15.7646478 4.23518094,18 6.99310226,18 L13.0068977,18 C15.7646478,18 18,15.7648191 18,13.0068977 L18,6.99310226 C18,4.2353522 15.7648191,2 13.0068977,2 Z M13.0068977,3 C15.1458285,3 16.8912927,4.68106458 16.9951143,6.79380618 L17,6.99310226 L17,13.0068977 C17,15.1458285 15.3189354,16.8912927 13.2061938,16.9951143 L13.0068977,17 L6.99310226,17 C4.85417146,17 3.10870727,15.3189354 3.00488568,13.2061938 L3,13.0068977 L3,6.99310226 C3,4.85417146 4.68106458,3.10870727 6.79380618,3.00488568 L6.99310226,3 L13.0068977,3 Z"/>
</svg>
