<svg xmlns="http://www.w3.org/2000/svg" width="24" height="24" viewBox="0 0 24 24">
  <path fill="#FFF" d="M15.1,4.17443857e-14 C18.4293598,4.17443857e-14 21,2.66271567 21,6.50598913 C21,7.05827388 20.5522847,7.50598913 20,7.50598913 C19.4477153,7.50598913 19,7.05827388 19,6.50598913 C19,3.75184296 17.3087349,2 15.1,2 L14.9,2 C12.6912651,2 11,3.75184296 11,6.50598913 L11,7.999 L14.0052166,8 C16.2114745,8 18,9.78732987 18,11.9931023 L18,18.0068977 C18,20.2122272 16.2082844,22 14.0052166,22 L3.9947834,22 C1.78852545,22 5.32907052e-15,20.2126701 5.32907052e-15,18.0068977 L5.32907052e-15,11.9931023 C5.32907052e-15,9.78777278 1.79171562,8 3.9947834,8 L9,7.999 L9,6.50598913 C9,2.66271567 11.5706402,4.17443857e-14 14.9,4.17443857e-14 L15.1,4.17443857e-14 Z M14.0052166,10 L3.9947834,10 C2.89474821,10 2,10.8938786 2,11.9931023 L2,18.0068977 C2,19.1077248 2.89271921,20 3.9947834,20 L14.0052166,20 C15.1052518,20 16,19.1061214 16,18.0068977 L16,11.9931023 C16,10.8922752 15.1072808,10 14.0052166,10 Z" transform="translate(3 1)"/>
</svg>
